<svg xmlns="http://www.w3.org/2000/svg" viewBox="0 0 1584 396" role="img" aria-label="Deeper Designs · LinkedIn banner">
  <title>Deeper Designs · LinkedIn banner</title>
  <defs>
    <style>
      .eyebrow { font-family: "Geist Mono", ui-monospace, monospace; font-size: 14px; font-weight: 500; letter-spacing: 0.22em; fill: #6B6B6B; text-transform: uppercase; }
      .wordmark { font-family: "Geist", Inter, system-ui, sans-serif; font-size: 56px; font-weight: 600; letter-spacing: 0.18em; fill: #F5F5F5; }
      .tagline { font-family: "Geist", Inter, system-ui, sans-serif; font-size: 22px; font-weight: 400; letter-spacing: -0.01em; fill: #A8A8A8; }
      .url { font-family: "Geist Mono", ui-monospace, monospace; font-size: 12px; letter-spacing: 0.18em; fill: #6B6B6B; text-transform: uppercase; }
    </style>
  </defs>

  <rect width="1584" height="396" fill="#0A0A0A"/>

  <g stroke="rgba(255,255,255,0.04)" stroke-width="1">
    <line x1="0" y1="60" x2="1584" y2="60"/>
    <line x1="0" y1="336" x2="1584" y2="336"/>
  </g>

  <text class="eyebrow" x="88" y="92">AI-POWERED BUILD STUDIO · INDIA</text>
  <text class="wordmark" x="88" y="218">DEEPER DESIGNS</text>
  <text class="tagline" x="88" y="266">We think with you. Then we ship the thing.</text>
  <text class="url" x="88" y="364">DEEPERDESIGNS.IN</text>

  <g transform="translate(1112, 78)" fill="#7C6CFF" fill-rule="evenodd">
    <g transform="scale(6.25)">
      <path d="M4 0 L16 0 A12 16 0 0 1 16 32 L4 32 Z M10 6 L16 6 A6 10 0 0 1 16 26 L10 26 Z"/>
      <path d="M36 0 L48 0 A12 16 0 0 1 48 32 L36 32 Z M42 6 L48 6 A6 10 0 0 1 48 26 L42 26 Z"/>
    </g>
  </g>
  <rect x="1102" y="165" width="410" height="26" fill="#0A0A0A"/>
</svg>
