<svg xmlns="http://www.w3.org/2000/svg" viewBox="0 0 1500 600" role="img" aria-label="Deeper Designs · Notion header">
  <title>Deeper Designs · Notion header</title>
  <defs>
    <style>
      .eyebrow  { font-family: "Geist Mono", ui-monospace, monospace; font-size: 14px; font-weight: 500; letter-spacing: 0.22em; fill: #6B6B6B; text-transform: uppercase; }
      .wordmark { font-family: "Geist", Inter, system-ui, sans-serif; font-size: 44px; font-weight: 600; letter-spacing: 0.16em; fill: #F5F5F5; }
      .tagline  { font-family: "Instrument Serif", Georgia, serif; font-style: italic; font-size: 28px; fill: #A8A8A8; }
    </style>
  </defs>

  <rect width="1500" height="600" fill="#0A0A0A"/>

  <g stroke="rgba(255,255,255,0.04)" stroke-width="1">
    <line x1="0" y1="80" x2="1500" y2="80"/>
    <line x1="0" y1="520" x2="1500" y2="520"/>
  </g>

  <text class="eyebrow" x="96" y="118">INTERNAL · DEEPER DESIGNS</text>
  <text class="wordmark" x="96" y="316">DEEPER DESIGNS</text>
  <text class="tagline" x="96" y="370">working notes, briefs, decisions.</text>

  <g transform="translate(1056, 196)" fill="#6366F1" fill-rule="evenodd">
    <g transform="scale(6)">
      <path d="M4 0 L16 0 A12 16 0 0 1 16 32 L4 32 Z M10 6 L16 6 A6 10 0 0 1 16 26 L10 26 Z"/>
      <path d="M36 0 L48 0 A12 16 0 0 1 48 32 L36 32 Z M42 6 L48 6 A6 10 0 0 1 48 26 L42 26 Z"/>
    </g>
  </g>
  <rect x="1046" y="280" width="410" height="24" fill="#0A0A0A"/>
</svg>
